# xmcd CD database file
#
# Track frame offsets:
#	150
#	16590
#	30557
#	48640
#	62720
#	78907
#	92447
#	107992
#	122117
#	137460
#	151035
#	166580
#	179137
#	194815
#	209502
#	221342
#	237520
#	253355
#	271642
#	289682
#	294421
#
# Disc length: 4102 seconds
#
# Revision: 0
# Processed by: cddbd v1.5.2PL0 Copyright (c) Steve Scherf et al.
# Submitted via: CDex 2.10
#
DISCID=2c100415
DTITLE=Various Artist - Hott Country 13
DYEAR=1999
DGENRE=Country
TTITLE0=Reba McEntire - How Was I To Know
TTITLE1=Alan Jackson - Everthing I Love
TTITLE2=Trace Adkins - (This Ain`t) No Thinkin` Thing
TTITLE3=Terri Clark - Emotional Girl
TTITLE4=Riccohet - Ease My Troubled Mind
TTITLE5=Rick Tippe - You `re All Need
TTITLE6=Tracy Byrd - Don`t Take Her She`s All I Got
TTITLE7=Martina McBride - Cry On The Shoulder Of The Road
TTITLE8=Lorrie Morgan - Good As I Was To You
TTITLE9=David Lee Murphy - Genuine Rednecks
TTITLE10=Big House - Cold Outside
TTITLE11=Regina Regina - More Than I Wanted To Know
TTITLE12=Mary-Chapin Carpenter - I Want To Be Your Girlfiend
TTITLE13=Noel Haggard - Once You Learn 
TTITLE14=Gary Allan - Forever And A Day
TTITLE15=Larry Stewart - Always A Woman
TTITLE16=Duane Steele - She`s Tough
TTITLE17=Rankin Family - Roving Gypsy (Remix)
TTITLE18=Chris Cummings - Somewhere Inside
TTITLE19=Marlk Cheatnutt - Let It Rain
TTITLE20=Unknown
EXTD=YEAR: 1999
EXTT0=
EXTT1=
EXTT2=
EXTT3=
EXTT4=
EXTT5=
EXTT6=
EXTT7=
EXTT8=
EXTT9=
EXTT10=
EXTT11=
EXTT12=
EXTT13=
EXTT14=
EXTT15=
EXTT16=
EXTT17=
EXTT18=
EXTT19=
EXTT20=
PLAYORDER=
